<?xml version="1.0" standalone="no"?>
<!DOCTYPE svg PUBLIC "-//W3C//DTD SVG 20010904//EN"
 "http://www.w3.org/TR/2001/REC-SVG-20010904/DTD/svg10.dtd">
<svg version="1.0" xmlns="http://www.w3.org/2000/svg"
 width="2048.000000pt" height="2048.000000pt" viewBox="0 0 2048.000000 2048.000000"
 preserveAspectRatio="xMidYMid meet">

<g transform="translate(0.000000,2048.000000) scale(0.100000,-0.100000)"
fill="#ffffff" stroke="none">
<path d="M13680 16317 c-915 -912 -2388 -2378 -3105 -3089 l-400 -397 -470
-141 c-258 -78 -490 -148 -515 -156 -24 -7 -46 -12 -48 -9 -5 5 27 3325 34
3502 6 133 7 142 26 145 12 2 27 13 35 25 14 20 13 24 -9 46 -13 13 -30 26
-37 28 -23 8 -3 49 23 49 60 0 61 54 2 107 -34 31 -59 43 -105 53 -142 30
-308 -31 -271 -100 7 -13 21 -20 40 -20 28 0 30 -2 30 -40 0 -36 -3 -41 -36
-55 -31 -13 -35 -18 -32 -47 3 -29 7 -33 37 -36 l34 -4 -6 -581 c-3 -320 -12
-1157 -19 -1860 -8 -862 -15 -1283 -22 -1292 -6 -7 -231 -79 -501 -160 -1781
-536 -1600 -478 -1615 -515 -17 -40 4 -81 48 -94 24 -6 32 -15 32 -31 0 -12 9
-30 21 -41 19 -17 41 -19 200 -22 l179 -3 -44 -57 c-88 -113 -265 -266 -371
-319 -27 -14 -65 -38 -85 -53 -47 -38 -266 -148 -309 -156 -18 -4 -41 -14 -51
-24 -28 -28 -230 -102 -310 -113 -110 -15 -719 -15 -870 1 -580 60 -993 189
-1193 372 -30 27 -58 61 -61 74 -7 27 -41 33 -157 28 l-66 -4 -7 -90 c-3 -50
-6 -168 -6 -262 0 -94 -3 -187 -6 -207 l-6 -37 -102 -6 c-55 -3 -343 -9 -639
-12 l-538 -7 1 282 c1 156 -1 285 -3 288 -7 6 -208 5 -215 -1 -2 -3 -7 -121
-9 -263 -2 -142 -6 -268 -9 -281 l-5 -23 -347 3 -347 4 -65 28 c-235 102 -393
197 -512 305 -77 71 -163 192 -155 220 2 10 1 24 -2 30 -11 17 -236 28 -245
12 -8 -12 -17 -314 -76 -2351 -16 -580 -32 -1069 -35 -1087 -6 -36 -6 -36 92
-112 55 -43 67 -48 117 -50 44 -1 57 2 64 16 5 10 12 152 15 317 3 164 10 303
15 308 9 9 178 40 897 163 77 13 219 37 315 54 96 16 188 31 204 33 l30 3 -3
-210 c-2 -115 -6 -266 -10 -335 -6 -125 -6 -125 19 -147 112 -97 116 -99 162
-101 27 -2 49 2 55 10 6 8 13 130 16 307 3 170 9 297 15 303 11 11 126 35 972
208 157 32 288 55 292 52 5 -6 -6 -563 -14 -679 -2 -29 3 -39 27 -57 16 -11
48 -37 71 -57 32 -27 50 -36 86 -37 28 -2 49 2 56 11 9 10 13 207 18 698 3
376 9 842 14 1034 4 193 9 449 9 569 1 121 3 221 4 222 1 2 59 6 129 10 108 6
129 4 149 -10 13 -9 32 -16 42 -16 19 0 48 23 47 37 0 4 64 15 142 24 111 12
147 13 163 4 33 -19 75 -24 75 -9 0 8 5 14 11 14 5 0 8 4 5 9 -12 19 192 48
222 32 11 -6 30 -11 42 -11 22 0 53 23 44 33 -3 3 21 11 53 17 32 6 129 26
215 44 l156 33 11 -23 c11 -25 50 -40 76 -30 19 7 16 56 -4 56 -35 0 11 20
104 45 55 14 127 34 160 44 40 12 78 17 116 14 53 -5 57 -4 62 18 5 20 23 30
99 56 98 34 228 54 228 35 0 -6 -5 -14 -11 -17 -17 -11 22 -34 57 -35 24 0 33
5 37 22 4 14 0 26 -11 34 -15 11 -12 13 18 18 313 52 497 92 680 150 l46 14
-1 -27 c0 -22 5 -26 33 -29 19 -2 38 3 47 11 13 13 12 18 -5 40 l-20 25 58 23
c31 12 83 35 116 51 32 16 59 28 61 26 7 -8 -124 -3616 -132 -3637 -14 -37 -4
-71 26 -84 18 -7 456 -12 1508 -15 1693 -5 1519 7 1505 -100 -9 -63 -1 -92 23
-92 12 0 15 -24 15 -139 0 -99 4 -141 13 -148 12 -11 1898 -36 1924 -26 10 4
13 40 14 152 l0 146 65 55 64 55 0 57 c0 31 4 59 9 62 5 3 1489 22 3297 41
1809 19 3321 37 3359 40 39 2 84 5 101 5 18 0 42 8 55 19 l22 18 -2 1922 -3
1922 369 -2 c203 -1 375 1 382 5 23 14 33 58 20 88 -6 15 -15 28 -20 28 -5 0
-9 13 -9 29 0 16 -8 38 -17 49 -17 19 -981 875 -1055 936 -33 28 -379 403
-1180 1283 l-258 283 0 154 0 154 165 131 c177 140 188 156 143 199 -18 15
-1241 511 -1379 558 -16 5 -136 129 -290 299 -1129 1241 -1480 1623 -1494
1629 -9 3 -22 6 -28 6 -6 0 -414 -402 -907 -893z m1366 238 c241 -264 566
-622 724 -795 158 -173 547 -601 865 -950 318 -349 685 -752 815 -895 130
-143 474 -521 764 -840 290 -319 553 -602 584 -630 31 -27 277 -246 547 -485
l490 -435 -125 -3 c-69 -1 -978 11 -2020 28 -2066 33 -3856 62 -5305 85 -1680
27 -2806 45 -3740 60 -1222 19 -1646 27 -1643 31 3 2 242 75 968 294 999 301
1684 508 1960 591 l295 89 1440 1432 c792 788 1773 1765 2180 2170 407 406
745 737 752 736 7 -2 209 -219 449 -483z m-5948 -212 l3 -53 -50 0 -51 0 0 56
0 55 48 -3 47 -3 3 -52z m-13 -555 c-3 -227 -9 -865 -15 -1418 -5 -553 -12
-1202 -16 -1442 l-6 -438 -40 -11 c-22 -5 -41 -9 -43 -7 -3 3 19 2354 29 3063
3 226 6 467 6 538 l0 127 45 0 44 0 -4 -412z m7952 -860 c266 -105 482 -192
480 -193 -2 -2 -660 22 -663 24 -3 2 -300 328 -319 351 l-20 23 20 -7 c11 -4
237 -93 502 -198z m362 -249 c151 -5 276 -11 277 -12 3 -3 -193 -157 -200
-157 -3 0 -6 29 -6 64 0 43 -4 65 -13 69 -7 2 -118 1 -247 -4 l-235 -8 -35 35
-35 35 110 -6 c61 -3 234 -10 384 -16z m-18 -304 c-1 -99 -4 -181 -6 -183 -1
-2 -76 77 -166 175 l-163 178 124 6 c69 3 145 5 170 5 l44 -1 -3 -180z m-9991
-2867 c0 -40 -3 -130 -7 -200 l-6 -126 -96 -45 c-203 -96 -474 -173 -791 -226
-101 -17 -185 -30 -187 -28 -7 8 109 47 138 47 16 0 29 5 29 13 0 6 26 25 58
42 31 16 102 54 157 84 55 30 115 58 133 63 18 5 36 16 39 24 3 9 50 49 104
90 73 55 106 74 129 74 44 0 83 43 57 61 -11 8 -4 19 83 122 64 76 65 77 112
77 l48 0 0 -72z m1650 41 c745 -12 1358 -24 1361 -28 3 -3 -7 -346 -22 -761
-16 -415 -46 -1259 -68 -1875 -23 -616 -44 -1173 -47 -1237 l-7 -118 -58 0
c-58 0 -59 1 -59 28 0 15 27 904 60 1976 33 1073 57 1952 55 1954 -2 3 -11 2
-20 -1 -12 -5 -15 -32 -17 -159 l-2 -153 -6 135 c-5 132 -6 135 -30 146 -18 9
-344 14 -1210 19 -999 6 -1187 5 -1197 -6 -8 -10 -18 -239 -33 -719 -11 -388
-25 -817 -29 -955 -10 -300 -15 -285 101 -285 l78 0 0 -82 c0 -46 -11 -486
-25 -978 -14 -492 -25 -901 -25 -907 0 -9 -21 -13 -70 -13 -66 0 -70 1 -70 23
0 12 14 436 30 942 35 1083 34 995 16 995 -11 0 -16 -19 -20 -72 -6 -85 -57
-1695 -56 -1810 l0 -78 -65 0 -65 0 0 103 c1 56 25 959 54 2007 32 1117 50
1909 45 1915 -6 6 -12 6 -18 0 -5 -6 -32 -854 -60 -1885 -28 -1031 -53 -1935
-57 -2008 l-6 -133 -52 3 -51 3 3 100 c6 208 91 2725 96 2845 3 69 10 274 16
455 6 182 12 362 15 400 2 39 5 107 5 153 l0 82 78 0 c42 0 687 -9 1432 -21z
m1566 -32 c1 -1 -9 -198 -22 -437 -13 -239 -53 -990 -89 -1669 -36 -679 -67
-1237 -69 -1239 -3 -2 -27 -5 -55 -6 -49 -3 -51 -2 -51 24 0 14 27 766 60
1670 33 904 60 1650 60 1658 0 12 14 13 83 7 45 -4 83 -7 83 -8z m120 -74 c-3
-43 -29 -782 -57 -1643 -27 -861 -52 -1579 -55 -1597 l-5 -31 -71 3 -72 4 2
48 c5 108 162 3086 168 3186 l7 107 44 0 44 0 -5 -77z m93 -645 c-1 -398 -5
-1152 -8 -1677 l-6 -954 -75 2 c-41 1 -76 4 -78 6 -2 2 22 743 52 1646 31 904
56 1656 56 1672 0 23 4 27 30 27 l30 0 -1 -722z m1146 703 l390 -6 -2 -285
c-4 -430 -35 -3035 -37 -3037 0 0 -315 -3 -699 -5 l-697 -3 5 1055 c3 580 7
1159 10 1285 3 127 5 407 5 622 l0 393 318 -6 c174 -4 493 -9 707 -13z m579
-158 c-2 -82 -18 -884 -34 -1783 -33 -1838 -38 -2000 -53 -2000 -7 0 -8 126
-4 398 4 218 9 629 12 912 3 283 7 612 10 730 3 118 8 530 11 915 4 385 8 711
10 725 1 14 3 76 3 138 l1 112 25 0 24 0 -5 -147z m206 110 c0 -44 -98 -3717
-102 -3818 l-3 -70 -67 -3 -68 -3 0 111 c0 108 39 2215 60 3200 5 267 10 515
10 553 l0 67 85 0 85 0 0 -37z m170 -13 c0 -58 -76 -2385 -84 -2585 -3 -71
-13 -350 -21 -620 -8 -269 -18 -532 -21 -582 l-6 -93 -55 0 -56 0 6 138 c4 75
27 936 52 1912 25 976 48 1799 51 1828 l5 52 65 0 64 0 0 -50z m110 44 l35 -6
-3 -78 -3 -78 -55 -4 c-62 -3 -60 -8 -48 111 7 66 7 66 74 55z m183 -64 c8
-95 5 -100 -66 -100 l-60 0 7 46 c3 26 6 62 6 80 l0 34 54 0 53 0 6 -60z m154
-15 c-3 -41 -8 -79 -12 -85 -3 -5 -28 -10 -56 -10 l-49 0 0 85 0 85 61 0 62 0
-6 -75z m143 -10 l0 -85 -55 0 -55 0 0 85 0 85 55 0 55 0 0 -85z m148 79 c20
-6 22 -12 22 -85 l0 -79 -71 0 -71 0 6 31 c3 17 6 56 6 85 l0 54 43 0 c23 0
52 -3 65 -6z m230 -81 l-3 -78 -87 -3 -88 -3 0 43 c0 24 5 60 11 81 l10 37 80
0 80 0 -3 -77z m132 -3 l0 -80 -50 0 c-56 0 -54 -5 -44 99 l7 61 43 0 44 0 0
-80z m146 34 c-3 -26 -6 -63 -6 -83 l0 -36 -50 3 c-47 4 -50 6 -50 30 0 15 -3
51 -6 80 l-7 52 63 0 63 0 -7 -46z m161 36 c23 0 24 -2 21 -77 l-3 -78 -72 -3
-73 -3 0 63 c0 35 3 74 7 87 5 21 10 23 51 17 25 -3 56 -6 69 -6z m177 -52
c13 -112 15 -108 -59 -108 l-65 0 0 80 0 80 59 0 58 0 7 -52z m186 -28 l0 -80
-70 0 c-79 0 -74 -5 -84 103 l-5 57 80 0 79 0 0 -80z m158 -2 l3 -78 -66 0
-65 0 0 80 0 81 63 -3 62 -3 3 -77z m222 -3 l0 -75 -89 0 -88 0 -7 53 c-12
104 -19 97 89 97 l95 0 0 -75z m160 -5 l0 -80 -59 0 c-33 0 -62 4 -65 8 -3 5
-2 41 1 80 l6 72 58 0 59 0 0 -80z m184 64 c3 -9 6 -45 6 -80 l0 -64 -75 0
-75 0 0 80 0 80 69 0 c54 0 70 -4 75 -16z m120 10 l46 -7 0 -73 0 -74 -59 0
c-58 0 -59 1 -65 31 -3 17 -6 53 -6 80 0 55 -1 54 84 43z m272 -306 c-3 -167
-16 -1030 -27 -1918 -12 -888 -23 -1617 -24 -1618 -2 -2 -31 -5 -66 -5 l-62
-2 2 874 c1 480 5 879 7 886 3 7 14 15 25 18 18 5 19 16 19 189 0 100 3 519 7
930 5 687 5 749 -11 773 -9 14 -25 25 -36 25 -18 0 -20 7 -20 75 l0 75 96 0
97 0 -7 -302z m184 85 c0 -151 -47 -3583 -50 -3620 0 -2 -34 -3 -75 -3 l-75 0
5 278 c8 359 45 3192 45 3402 l0 160 75 0 75 0 0 -217z m150 137 c0 -65 -4
-84 -19 -99 -17 -17 -19 -48 -26 -507 -4 -269 -10 -689 -15 -934 -6 -374 -5
-449 6 -467 8 -13 21 -23 29 -23 13 0 15 -109 15 -865 l0 -865 -75 0 -75 0 0
183 c0 100 11 956 25 1902 14 946 25 1728 25 1738 0 14 9 17 55 17 l55 0 0
-80z m170 -15 l0 -85 -65 0 -65 0 0 85 0 85 65 0 65 0 0 -85z m173 73 c-2 -5
-3 -42 -3 -83 l0 -75 -70 0 -70 0 0 85 0 86 73 -3 c39 -2 71 -6 70 -10z m185
-70 l-3 -83 -72 -3 -73 -3 0 86 0 85 75 0 76 0 -3 -82z m150 72 l33 0 -3 -82
-3 -83 -72 -3 -73 -3 0 84 c0 46 3 87 8 91 4 4 23 5 42 2 19 -3 50 -6 68 -6z
m182 -85 l0 -85 -60 0 -60 0 0 78 c0 43 3 82 7 85 3 4 30 7 60 7 l53 0 0 -85z
m170 0 l0 -85 -70 0 c-80 0 -76 -7 -64 109 l7 61 63 0 64 0 0 -85z m163 -4
c-2 -46 -5 -86 -7 -89 -3 -2 -32 -1 -65 3 l-61 7 0 53 c0 29 3 67 6 84 l7 32
61 -3 61 -3 -2 -84z m140 7 c-6 -99 -6 -98 -58 -98 l-45 0 0 85 0 85 54 0 53
0 -4 -72z m125 -10 l-3 -83 -49 -3 -49 -3 6 53 c4 29 7 68 7 86 0 31 1 32 45
32 l46 0 -3 -82z m162 -3 l0 -85 -65 0 -65 0 0 85 0 85 65 0 65 0 0 -85z m190
-5 l0 -90 -49 0 c-27 0 -63 3 -80 6 -28 6 -31 10 -31 44 0 20 3 58 6 84 l7 46
73 0 74 0 0 -90z m158 75 c2 -2 0 -40 -4 -84 l-7 -81 -58 0 -59 0 0 44 c0 24
3 63 6 88 l6 44 57 -4 c31 -2 57 -6 59 -7z m-9171 -9 c2 -2 -47 -1820 -50
-1821 -7 -4 -1087 31 -1091 35 -2 3 0 120 4 260 5 140 16 512 25 825 8 314 18
602 21 641 l5 70 542 -4 c298 -2 543 -5 544 -6z m9303 -71 l0 -85 -50 0 -50 0
0 85 0 85 50 0 50 0 0 -85z m163 -2 c-3 -49 -6 -88 -7 -88 0 -1 -30 1 -64 3
-60 4 -63 5 -58 25 3 12 6 50 6 85 l0 62 65 0 64 0 -6 -87z m163 72 c4 -9 3
-49 -1 -90 l-7 -75 -59 0 -59 0 0 90 0 90 60 0 c45 0 62 -4 66 -15z m139 0 c6
-1 9 -35 7 -84 l-4 -81 -54 0 -54 0 0 83 c0 46 3 86 6 89 5 5 74 1 99 -7z
m-8887 -5 l305 0 -6 -332 c-4 -183 -9 -542 -12 -798 -5 -453 -12 -711 -20
-718 -4 -5 -1099 29 -1104 34 -5 5 39 1773 45 1803 l5 24 241 -6 c133 -4 378
-7 546 -7z m9032 -87 c0 -75 -3 -94 -12 -85 -7 7 -29 12 -50 12 l-38 0 0 85 0
85 50 0 50 0 0 -97z m130 -65 c0 -90 -11 -919 -25 -1843 -14 -924 -25 -1697
-25 -1717 l0 -38 -61 0 -61 0 6 213 c4 116 20 876 36 1687 16 811 32 1562 36
1668 l6 192 44 0 44 0 0 -162z m113 155 c3 -5 7 -849 8 -1878 l4 -1870 -69 0
-70 0 2 165 c9 792 43 3192 48 3368 l6 222 34 0 c18 0 35 -3 37 -7z m-15276
-514 c-3 -231 -7 -422 -9 -424 -2 -1 -20 -5 -42 -9 l-38 -7 6 353 c4 194 9
388 12 431 l6 77 36 0 35 0 -6 -421z m79 397 c3 -14 3 -30 -1 -35 -3 -6 -6
-150 -5 -321 1 -364 -6 -470 -28 -470 -13 0 -14 22 -9 167 4 91 7 282 7 425 0
221 2 258 15 258 8 0 17 -11 21 -24z m-3279 -158 c-4 -90 -23 -874 -43 -1743
-21 -869 -38 -1582 -40 -1584 -2 -2 -26 14 -54 35 l-51 39 6 150 c5 121 95
3204 95 3252 0 9 14 13 46 13 l47 0 -6 -162z m83 110 c0 -29 -5 -217 -10 -418
-5 -201 -16 -660 -25 -1020 -8 -360 -20 -785 -26 -945 -6 -159 -11 -416 -10
-570 1 -154 -1 -333 -5 -397 -6 -109 -8 -118 -27 -118 -19 0 -20 4 -13 243 12
424 76 3129 76 3205 0 65 2 72 20 72 17 0 20 -7 20 -52z m1600 -261 c0 -156
-3 -318 -6 -360 -6 -71 -9 -77 -30 -77 -57 0 -55 -12 -49 284 3 149 8 308 11
354 l6 82 34 0 34 0 0 -283z m71 -82 c-2 -198 -6 -363 -10 -367 -23 -26 -26
28 -23 370 4 330 6 363 21 360 15 -3 16 -35 12 -363z m11890 336 c4 -3 10
-394 14 -869 l7 -863 -138 6 c-77 3 -371 10 -654 16 -283 6 -516 12 -518 13
-2 3 15 598 38 1341 5 171 10 325 10 343 l0 33 618 -7 c339 -3 620 -9 623 -13z
m1077 -7 l262 -6 0 -873 0 -872 -92 3 c-51 2 -327 9 -613 15 -286 6 -521 12
-523 14 -2 1 -6 391 -9 866 l-6 864 359 -2 c197 -2 477 -6 622 -9z m-5131
-251 c-1 -43 -3 -10 -3 72 0 83 2 118 3 78 2 -40 2 -107 0 -150z m6766 201
c252 -4 459 -10 460 -13 2 -3 0 -166 -4 -361 -4 -195 -10 -528 -13 -740 -3
-212 -9 -443 -12 -514 l-6 -128 -437 6 c-240 3 -517 9 -615 12 l-179 6 7 657
c3 361 9 754 13 875 l6 219 161 -7 c89 -3 367 -9 619 -12z m-12909 -33 c34
-21 85 -50 114 -65 50 -25 66 -49 40 -59 -10 -4 -9 -8 2 -16 21 -15 87 -14 92
1 3 9 32 4 104 -19 54 -18 120 -37 147 -44 48 -12 71 -29 48 -37 -23 -8 23
-31 62 -32 26 0 37 4 37 15 0 19 12 18 125 -3 85 -17 90 -19 87 -41 -4 -27 12
-41 49 -41 24 0 45 22 41 43 -4 16 214 -5 232 -23 7 -7 5 -10 -4 -10 -34 -1
26 -30 61 -30 29 0 36 4 35 18 -1 15 14 17 157 20 125 2 163 -1 187 -13 37
-19 80 -19 94 1 9 12 27 14 81 12 l70 -3 -142 -43 c-522 -157 -1050 -248
-1789 -306 l-72 -6 5 343 c2 188 6 347 8 354 3 10 18 15 59 22 5 0 36 -16 70
-38z m-3244 -54 c51 -55 52 -58 36 -76 -17 -19 -17 -20 8 -36 15 -10 37 -15
52 -12 20 4 48 -9 118 -54 50 -33 124 -76 163 -97 75 -38 93 -64 51 -76 -39
-10 -506 -7 -513 4 -3 5 -3 104 1 220 6 163 10 208 19 198 6 -7 36 -39 65 -71z
m17718 56 l234 -6 -7 -371 c-4 -204 -10 -593 -15 -864 -4 -271 -10 -496 -13
-499 -8 -8 -1214 10 -1222 19 -6 6 9 1027 20 1303 2 72 5 199 5 284 l0 154
383 -7 c210 -3 487 -9 615 -13z m-14844 -500 c-3 -32 -7 -59 -9 -61 -3 -4
-543 -21 -917 -28 l-358 -7 0 67 0 66 53 1 c272 7 743 16 965 17 l273 2 -7
-57z m-2109 14 c84 -28 101 -37 103 -57 2 -12 13 -25 24 -28 64 -16 -57 -22
-494 -22 l-488 0 0 70 0 70 378 0 378 0 99 -33z m589 -30 c-1 -32 -4 -60 -7
-64 -12 -11 -428 84 -507 116 -18 7 55 9 245 8 l270 -2 -1 -58z m-316 -48 c72
-18 73 -29 5 -29 -76 0 -98 7 -82 26 14 17 18 17 77 3z m1832 -89 l0 -40 -242
0 c-134 0 -326 5 -428 10 -193 11 -481 37 -489 45 -2 3 38 6 90 6 52 1 234 5
404 8 171 4 390 8 488 9 l177 2 0 -40z m-1652 0 c19 -23 82 -39 82 -21 0 6 11
11 25 11 25 0 25 -1 25 -85 l0 -85 -722 2 -723 3 -3 35 c-2 19 -1 63 3 98 l7
62 645 0 c632 0 645 0 661 -20z m231 3 l24 -6 -7 -461 c-4 -254 -11 -711 -16
-1016 -5 -305 -10 -677 -10 -827 0 -149 -4 -274 -9 -277 -5 -3 -27 11 -50 32
l-41 37 10 480 c5 264 14 710 20 990 5 281 13 633 16 783 8 296 4 281 63 265z
m91 -245 c0 -128 -5 -469 -11 -758 -5 -289 -12 -770 -14 -1069 -3 -299 -7
-546 -9 -549 -3 -2 -13 -2 -22 2 -15 6 -16 26 -10 219 4 116 11 527 16 912 19
1381 21 1475 36 1475 12 0 14 -41 14 -232z m127 198 c33 -28 83 -44 83 -27 0
25 39 28 185 15 83 -7 160 -13 173 -14 13 0 21 -4 18 -9 -8 -12 16 -30 52 -40
23 -7 33 -5 45 9 8 10 12 21 9 25 -4 4 76 5 178 3 175 -3 187 -4 214 -25 38
-30 69 -29 86 2 12 23 19 25 87 25 l73 0 0 -33 0 -34 -432 -7 c-238 -3 -529
-9 -645 -13 l-213 -6 0 77 0 76 29 0 c17 0 42 -11 58 -24z m1308 -56 c17 -19
17 -48 6 -642 -6 -343 -14 -885 -18 -1206 -3 -321 -10 -585 -13 -587 -4 -3
-26 12 -49 33 l-41 37 10 475 c5 261 14 716 20 1010 5 294 12 617 16 718 6
179 7 182 29 182 12 0 30 -9 40 -20z m76 -827 c-6 -455 -14 -1010 -16 -1233
-3 -222 -8 -406 -10 -408 -2 -3 -12 -2 -21 2 -15 6 -16 25 -10 209 3 111 11
535 16 942 13 1025 19 1289 31 1293 5 2 9 11 9 20 0 8 3 12 6 9 4 -4 2 -379
-5 -834z m-185 675 c-3 -34 -7 -62 -9 -64 -1 -1 -231 -7 -512 -13 -280 -6
-567 -13 -637 -15 l-128 -4 0 69 0 69 178 1 c97 1 317 5 487 8 171 4 382 8
469 9 l159 2 -7 -62z m-1518 -28 c-2 -33 -8 -63 -12 -67 -4 -4 -328 -9 -721
-11 l-715 -4 0 71 0 71 726 0 726 0 -4 -60z m1512 -169 l0 -89 -162 -7 c-90
-3 -354 -15 -588 -26 -234 -10 -449 -19 -477 -19 l-53 0 0 99 0 99 183 6 c156
6 708 19 1005 24 l92 2 0 -89z m-1520 -40 l0 -89 -72 -6 c-40 -3 -336 -10
-658 -16 -322 -6 -613 -13 -648 -16 -76 -7 -77 -6 -67 121 l7 95 719 0 719 0
0 -89z m1518 -158 l-3 -58 -99 -7 c-85 -6 -285 -17 -1058 -55 l-118 -6 0 61
c0 33 3 63 8 65 4 3 138 10 297 17 160 6 412 17 560 24 149 8 303 14 343 15
l73 1 -3 -57z m-1520 -50 l-3 -58 -130 -7 c-128 -7 -1166 -38 -1257 -38 l-48
0 0 64 0 64 173 6 c287 10 829 22 1055 24 l213 2 -3 -57z m1520 -108 c4 -62
-4 -67 -119 -77 -1109 -93 -1154 -97 -1161 -85 -10 16 -10 118 0 134 5 9 132
18 437 33 237 12 491 25 565 30 74 4 167 7 205 6 l70 -1 3 -40z m-1523 -62
c-1 -29 -3 -55 -7 -58 -3 -3 -192 -17 -419 -31 -228 -14 -547 -33 -709 -43
-343 -22 -325 -26 -314 74 4 33 9 63 13 66 3 4 285 14 626 23 341 10 643 18
670 20 28 1 70 2 95 2 l45 -1 0 -52z m1513 -100 l-3 -58 -60 -7 c-116 -14
-633 -69 -880 -93 -137 -14 -267 -28 -287 -31 l-38 -6 0 69 0 69 193 17 c105
10 320 29 477 43 157 13 346 31 420 38 203 21 181 26 178 -41z m4378 -146 c-3
-78 -17 -461 -31 -852 -14 -390 -29 -768 -33 -840 l-7 -130 -47 -3 -48 -3 0
123 c0 90 47 1853 50 1853 0 0 28 -2 61 -3 l62 -4 -7 -141z m-5896 83 c0 -50
-3 -60 -17 -60 -10 0 -88 -7 -173 -15 -190 -18 -1178 -95 -1220 -95 l-30 0 0
65 c0 44 4 67 13 70 10 3 1302 90 1395 94 l32 1 0 -60z m6080 24 c0 -29 -54
-1629 -62 -1859 l-3 -70 -75 0 -75 0 2 60 c2 33 17 465 34 960 17 495 32 910
35 923 4 20 10 22 74 22 l70 0 0 -36z m157 -82 c-4 -59 -23 -494 -43 -967 -19
-473 -37 -866 -39 -872 -3 -8 -23 -13 -55 -13 -33 0 -50 4 -50 13 0 6 11 334
25 727 13 393 27 812 30 930 3 118 8 233 11 255 l4 40 62 -3 61 -4 -6 -106z
m158 26 c-3 -46 -17 -423 -31 -838 -14 -415 -28 -818 -32 -895 l-7 -140 -59
-3 c-32 -2 -63 1 -67 5 -5 5 5 307 21 673 16 366 34 798 40 960 7 162 14 301
16 308 2 8 24 12 64 12 l60 0 -5 -82z m163 66 c5 -3 -68 -1870 -74 -1911 -5
-33 -6 -33 -59 -33 -30 0 -56 3 -58 8 -2 4 11 421 29 927 18 506 33 944 34
972 l0 53 63 -7 c34 -3 64 -7 65 -9z m155 -64 c-2 -36 -14 -454 -28 -930 -14
-476 -28 -884 -31 -907 l-5 -43 -65 0 c-35 0 -64 3 -64 8 -2 32 72 1867 76
1900 l5 43 57 -3 57 -3 -2 -65z m187 53 c5 -4 -67 -1799 -76 -1880 l-5 -53
-65 0 -64 0 0 38 c0 20 14 447 30 947 16 501 30 923 30 938 l0 28 73 -7 c39
-3 74 -8 77 -11z m150 -30 c1 -81 -61 -1821 -66 -1860 l-5 -43 -60 0 -59 0 0
35 c0 53 69 1684 76 1803 l6 102 54 0 54 0 0 -37z m158 22 c5 -4 -68 -1897
-73 -1912 -3 -9 -24 -13 -60 -13 -46 0 -55 3 -55 18 -1 52 61 1770 66 1840 l6
83 56 -7 c32 -3 58 -8 60 -9z m162 -12 c0 -79 -71 -1891 -75 -1900 -5 -14
-110 -19 -119 -5 -3 6 69 1909 73 1920 1 1 28 2 61 2 49 0 60 -3 60 -17z m155
4 c2 -2 -62 -1911 -64 -1915 0 -2 -29 -2 -63 0 l-63 3 2 55 c2 30 17 453 34
940 17 487 33 896 35 909 5 23 8 23 62 17 31 -4 57 -8 57 -9z m175 -49 c0 -36
-67 -1816 -70 -1865 0 -2 -29 -3 -65 -3 -64 0 -65 0 -65 28 0 15 14 437 30
937 16 501 30 920 30 933 0 21 4 22 70 22 l70 0 0 -52z m165 40 c4 -5 -55
-1881 -60 -1895 -3 -9 -26 -13 -70 -13 l-65 0 0 53 c0 83 60 1714 66 1796 l6
74 60 -6 c33 -3 61 -7 63 -9z m120 -930 c-14 -513 -29 -943 -31 -955 -4 -20
-11 -23 -54 -23 -27 0 -51 3 -53 8 -2 4 8 405 24 892 15 487 28 913 29 947 l0
62 53 3 c28 2 54 2 56 1 2 -1 -9 -422 -24 -935z m2851 912 c43 0 44 -1 44 -32
-2 -110 -68 -1809 -71 -1812 -2 -2 -32 -7 -66 -11 l-63 -7 0 63 c0 84 48 1541
56 1696 l6 122 25 -10 c13 -5 44 -9 69 -9z m194 -127 c0 -71 -7 -454 -15 -853
-8 -399 -15 -758 -15 -797 l0 -73 -75 0 c-65 0 -75 2 -75 18 -1 48 63 1809 66
1820 2 8 23 12 59 12 l55 0 0 -127z m157 -305 c-4 -238 -10 -655 -14 -925 l-6
-493 -69 0 -69 0 6 113 c3 61 10 409 15 772 6 363 13 729 16 813 l6 152 61 0
60 0 -6 -432z m-9669 335 l-3 -88 -315 -37 c-173 -21 -457 -55 -630 -76 -173
-21 -318 -37 -322 -35 -10 5 -10 154 0 169 6 11 335 50 947 114 166 18 244 27
318 39 4 0 6 -38 5 -86z m9848 -10 c-3 -54 -13 -462 -22 -908 -9 -445 -18
-816 -20 -822 -2 -9 -24 -13 -65 -13 l-62 0 7 303 c3 166 8 493 11 727 3 234
8 512 11 618 l6 192 70 0 70 0 -6 -97z m174 -55 c0 -84 -7 -477 -15 -873 -8
-396 -15 -741 -15 -767 l0 -48 -75 0 -75 0 0 33 c0 17 9 403 20 857 11 454 20
853 20 888 l0 62 70 0 70 0 0 -152z m176 140 c7 -8 -53 -1806 -62 -1819 -8
-14 -101 -11 -106 4 -2 6 4 399 13 872 10 473 18 882 18 909 l1 48 65 -4 c35
-2 67 -7 71 -10z m139 -75 c-3 -43 -12 -429 -20 -858 -9 -429 -18 -804 -21
-832 l-5 -53 -55 0 -54 0 0 63 c-1 104 51 1669 56 1715 l5 42 50 0 49 0 -5
-77z m165 -75 c0 -84 -7 -481 -15 -883 -8 -401 -15 -742 -15 -757 0 -28 0 -28
-70 -28 l-70 0 0 58 c0 31 9 422 20 867 11 446 20 829 20 853 l0 42 65 0 65 0
0 -152z m166 140 c6 -6 -31 -1514 -42 -1705 l-6 -103 -54 0 -54 0 0 178 c0
126 21 1278 30 1636 0 9 116 4 126 -6z m144 -775 c0 -428 -3 -835 -7 -905 l-6
-128 -69 0 -68 0 0 43 c-1 107 42 1687 46 1725 l5 42 50 0 49 0 0 -777z m147
525 c-4 -139 -9 -518 -12 -843 -3 -324 -8 -618 -11 -652 l-6 -63 -44 0 -44 0
0 418 c0 229 3 636 7 905 l6 487 55 0 55 0 -6 -252z m143 245 l33 -6 -6 -891
c-6 -691 -10 -892 -20 -898 -6 -4 -41 -8 -76 -8 l-64 0 6 393 c4 215 10 617
13 892 3 275 7 506 9 513 5 13 53 16 105 5z m217 -235 c-4 -128 -11 -476 -17
-773 -6 -297 -13 -595 -16 -662 l-6 -123 -62 0 -61 0 2 363 c2 199 6 602 9
895 l6 532 76 0 75 0 -6 -232z m143 -663 l0 -895 -70 0 -70 0 0 48 c-1 126 32
1700 36 1720 4 19 11 22 54 22 l50 0 0 -895z m109 889 l31 -6 0 -889 0 -889
-57 0 -56 0 6 602 c4 331 7 733 7 895 0 327 -6 302 69 287z m201 -894 l0 -890
-65 0 -65 0 0 890 0 890 65 0 65 0 0 -890z m160 668 c0 -123 -3 -523 -7 -890
l-6 -668 -52 0 -52 0 -6 653 c-4 358 -7 759 -7 890 l0 237 65 0 65 0 0 -222z
m-13452 105 l-3 -88 -75 -8 c-178 -17 -1345 -127 -1357 -127 -10 0 -13 21 -13
83 0 45 4 87 8 94 9 15 134 27 832 83 278 22 514 42 525 44 11 2 35 4 53 5
l33 1 -3 -87z m14122 -20 c0 -54 -7 -431 -15 -838 -8 -407 -15 -752 -15 -767
0 -26 -3 -28 -40 -28 l-40 0 0 248 c0 137 3 526 7 865 l6 617 49 0 48 0 0 -97z
m164 88 c4 -6 -29 -1659 -34 -1718 0 -2 -27 -3 -60 -3 l-60 0 0 123 c-1 224
21 1461 26 1535 l6 72 58 0 c32 0 61 -4 64 -9z m166 -48 c0 -106 -51 -1649
-55 -1660 -3 -8 -23 -13 -55 -13 l-50 0 0 128 c0 70 7 402 15 737 8 336 15
665 15 733 l0 122 65 0 65 0 0 -47z m180 10 c0 -51 -52 -1668 -53 -1670 -7 -6
-136 -12 -140 -6 -3 6 48 1695 52 1711 1 1 33 2 71 2 l70 0 0 -37z m150 30 c0
-37 -51 -1487 -56 -1580 l-6 -123 -55 0 -55 0 6 88 c3 48 15 400 26 782 11
382 23 728 26 768 l6 72 54 0 c30 0 54 -3 54 -7z m166 -1 c7 -5 2 -257 -17
-852 -15 -465 -27 -846 -28 -847 -1 -2 -32 -3 -71 -3 l-70 0 0 48 c-1 83 52
1637 56 1650 4 13 111 17 130 4z m174 -44 c0 -24 -11 -385 -25 -803 -14 -418
-25 -781 -25 -807 l0 -48 -65 0 -65 0 0 43 c0 23 11 391 25 817 14 426 25 790
25 808 l0 32 65 0 65 0 0 -42z m140 -440 c0 -266 -3 -648 -7 -850 l-6 -368
-74 0 -75 0 6 88 c3 48 15 411 26 807 12 396 23 739 26 763 l5 42 50 0 49 0 0
-482z m146 270 c-3 -117 -11 -494 -17 -838 -6 -344 -12 -631 -14 -637 -3 -8
-21 -13 -45 -13 l-40 0 0 598 c0 329 3 707 7 839 l6 240 26 11 c14 5 39 10 55
11 l28 1 -6 -212z m148 203 c6 -9 -34 -1673 -39 -1679 -4 -5 -96 -5 -100 0 -4
4 26 1660 30 1676 5 14 101 17 109 3z m186 -103 c0 -57 -9 -418 -20 -803 -11
-385 -20 -717 -20 -737 l0 -38 -75 0 -75 0 5 153 c8 222 35 1319 35 1431 l0
96 75 0 75 0 0 -102z m150 80 c0 -13 -11 -360 -25 -773 -14 -412 -25 -780 -25
-817 l0 -68 -55 0 -54 0 4 93 c3 50 12 360 20 687 8 327 17 664 21 748 l6 152
54 0 c49 0 54 -2 54 -22z m140 -40 c-1 -53 -48 -1608 -49 -1615 -1 -2 -26 -3
-57 -3 l-57 0 6 103 c4 56 16 428 28 827 11 399 23 731 25 738 2 7 22 12 54
12 l50 0 0 -62z m162 -58 c-2 -63 -12 -414 -22 -780 -11 -366 -20 -691 -20
-722 l0 -58 -65 0 -65 0 0 43 c-1 94 41 1516 46 1575 l6 63 61 -3 62 -3 -3
-115z m164 -17 c-4 -71 -13 -387 -21 -703 -8 -316 -18 -635 -21 -707 l-6 -133
-64 0 -64 0 5 128 c5 101 45 1479 45 1529 0 9 19 13 66 13 l66 0 -6 -127z
m148 -20 c-3 -82 -14 -453 -24 -826 -10 -374 -20 -680 -22 -682 -2 -1 -27 -5
-55 -7 l-53 -5 0 96 c0 53 9 395 20 761 11 366 20 698 20 738 l0 72 60 0 60 0
-6 -147z m156 90 c0 -32 -7 -348 -15 -703 -8 -355 -15 -702 -15 -772 l0 -128
-65 0 -65 0 0 88 c0 48 9 395 20 772 11 377 20 711 20 743 l0 57 60 0 60 0 0
-57z m-15157 -143 c-7 -7 -178 -32 -1017 -151 -115 -16 -217 -29 -227 -29 -17
0 -19 8 -19 65 0 36 1 65 3 65 5 0 659 81 882 109 132 16 272 34 310 38 l70 8
3 -49 c2 -27 0 -52 -5 -56z m-1513 -24 c0 -53 -1 -54 -32 -60 -45 -7 -562 -68
-1025 -119 l-383 -42 0 67 c0 38 1 68 3 69 11 4 1353 137 1390 138 l47 1 0
-54z m1520 -90 c0 -41 -4 -77 -9 -80 -10 -7 -146 -32 -611 -117 -451 -81 -600
-108 -630 -111 l-25 -3 3 95 c2 52 7 97 12 100 5 3 159 27 342 54 183 26 461
67 618 91 157 23 288 43 293 44 4 0 7 -32 7 -73z m-1520 -86 c0 -74 -1 -80
-22 -85 -13 -2 -133 -21 -268 -41 -135 -19 -362 -53 -505 -75 -143 -22 -336
-51 -430 -64 -93 -14 -182 -28 -197 -31 l-28 -6 0 101 c0 56 4 103 10 106 11
7 302 43 890 110 217 25 422 49 455 54 104 15 95 21 95 -69z m1518 -101 l-3
-44 -130 -27 c-171 -36 -1124 -228 -1130 -228 -3 0 -5 27 -5 59 0 48 3 61 18
65 9 3 114 23 232 45 356 66 871 162 940 175 36 7 69 10 73 6 5 -4 7 -27 5
-51z m-1520 -81 l-3 -52 -160 -28 c-293 -51 -1049 -179 -1144 -194 -52 -8
-105 -17 -118 -20 -22 -6 -23 -4 -23 60 0 36 3 66 7 66 4 0 77 11 163 25 85
14 319 50 520 81 201 31 444 69 540 84 241 38 222 40 218 -22z m9390 -618
c750 0 793 -1 790 -17 -3 -17 -29 -18 -358 -21 -195 -1 -472 2 -615 7 -158 5
-358 5 -510 0 -282 -10 -445 -4 -445 17 0 16 84 23 235 18 61 -2 467 -4 903
-4z m-1143 -110 c53 0 55 -1 56 -27 1 -16 2 -43 4 -61 3 -37 -8 -46 -68 -55
-64 -10 -67 -6 -66 97 0 65 3 84 9 69 8 -20 17 -23 65 -23z m1578 -5 l347 0 0
-42 c0 -38 -3 -43 -27 -49 -15 -4 -187 1 -382 11 -369 18 -524 17 -1073 -6
-141 -6 -269 -8 -283 -5 -24 6 -26 11 -23 49 l3 42 190 6 c105 3 350 3 545 0
195 -3 511 -6 703 -6z m162 -163 c99 -4 173 -10 165 -14 -8 -4 -217 -11 -465
-17 -622 -15 -1429 -20 -1382 -10 21 5 51 16 67 24 21 11 66 15 172 16 79 1
206 5 283 9 148 8 857 3 1160 -8z m135 -111 c0 -17 -11 -20 -87 -27 -49 -4
-191 -4 -318 0 -299 8 -1254 -11 -1272 -26 -19 -15 -16 -46 5 -57 12 -7 183
-7 493 0 261 5 626 8 811 7 l338 -3 0 -42 0 -43 -117 0 c-65 1 -455 5 -868 10
-735 9 -750 8 -771 -11 -11 -10 -23 -19 -27 -19 -4 0 -7 32 -7 71 0 89 -10
109 -56 109 -19 0 -33 4 -30 9 4 6 249 10 594 10 323 1 607 4 632 7 25 3 173
9 330 13 157 4 300 9 318 9 25 2 32 -2 32 -17z m-1892 -138 c-2 -23 -8 -29
-35 -31 -31 -3 -33 -1 -33 27 0 29 3 31 36 31 33 0 35 -2 32 -27z m1769 -129
l112 -6 -16 -24 -15 -24 -387 0 c-212 0 -620 3 -906 7 l-519 6 54 19 c30 10
59 23 65 29 10 11 1378 5 1612 -7z m189 -89 c-4 -14 -11 -25 -16 -25 -14 0
-12 44 2 58 16 16 22 0 14 -33z m-108 -50 c3 -3 2 -8 -2 -12 -4 -5 -424 -9
-932 -11 l-924 -4 0 23 0 22 926 -6 c510 -4 929 -9 932 -12z m-24 -172 c3 -42
6 -96 6 -121 l0 -44 -597 6 c-329 3 -736 9 -905 12 l-308 6 0 104 0 104 268 3
c147 1 551 3 898 5 l631 2 7 -77z"/>
<path d="M14411 16537 c-80 -78 -405 -395 -721 -702 -316 -308 -766 -747
-1000 -975 -235 -228 -805 -784 -1268 -1235 -772 -751 -842 -822 -842 -852 0
-34 29 -63 63 -63 20 0 -1 -20 1082 1035 1523 1484 1909 1860 2379 2318 l481
468 35 -39 c32 -35 462 -502 1225 -1332 154 -168 436 -474 625 -680 357 -388
662 -721 1245 -1354 187 -203 380 -414 429 -468 77 -85 93 -98 121 -98 36 0
65 26 65 59 0 24 6 17 -310 361 -124 135 -430 468 -681 740 -873 950 -2175
2367 -2441 2657 -148 160 -275 294 -284 297 -41 16 -61 2 -203 -137z"/>
<path d="M14375 16270 c-14 -23 14 -28 187 -36 233 -11 223 -12 223 6 0 15 5
15 -307 34 -60 4 -99 2 -103 -4z"/>
<path d="M14210 16095 c0 -8 1 -15 3 -15 1 0 166 -13 367 -29 344 -28 403 -28
374 -2 -7 7 -651 62 -721 61 -14 0 -23 -6 -23 -15z"/>
<path d="M14030 15947 c0 -23 8 -23 520 -46 435 -19 493 -18 465 8 -6 4 -183
16 -395 25 -212 9 -431 20 -487 23 -90 5 -103 4 -103 -10z"/>
<path d="M13895 15801 c-4 -7 -4 -15 0 -19 10 -10 1199 -60 1210 -50 6 5 6 11
0 17 -6 5 -230 19 -500 30 -269 12 -538 24 -596 27 -77 5 -108 3 -114 -5z"/>
<path d="M13710 15630 c0 -18 7 -20 58 -21 31 0 377 -15 767 -33 394 -18 714
-29 720 -25 6 6 6 12 0 18 -6 5 -323 23 -705 40 -382 17 -728 33 -767 36 -68
4 -73 3 -73 -15z"/>
<path d="M13545 15471 c-3 -5 -1 -13 5 -16 12 -8 1871 -67 1878 -60 2 2 2 10
-1 17 -4 11 -193 19 -923 41 -1041 32 -951 30 -959 18z"/>
<path d="M13991 15351 c-20 -20 -21 -33 -22 -211 -1 -104 -2 -193 -3 -197 -2
-8 -21 -1388 -21 -1521 0 -117 -44 -108 549 -116 277 -4 514 -5 525 -1 13 4
24 20 30 43 14 49 31 1937 18 1975 -5 15 -18 29 -30 31 -12 3 -248 8 -524 11
-498 6 -502 6 -522 -14z m449 -316 l0 -205 -172 2 -173 3 -3 203 -2 202 175 0
175 0 0 -205z m510 1 c0 -113 -4 -207 -9 -210 -5 -3 -99 -3 -209 1 l-201 6 -3
199 c-2 110 -1 202 1 204 2 2 98 4 213 4 l208 0 0 -204z m-512 -301 c1 -1 5
-75 9 -164 l6 -161 -184 2 -184 3 -3 35 c-2 19 -1 95 3 168 l7 133 172 -7 c94
-4 172 -8 174 -9z m506 -3 c2 -4 2 -81 -1 -171 l-6 -163 -191 4 c-105 2 -197
7 -203 11 -10 6 -13 51 -13 168 l0 159 204 0 c113 0 207 -3 210 -8z m-16 -457
c9 -3 12 -46 12 -170 l0 -165 -137 0 c-76 0 -270 3 -430 7 l-293 6 0 162 c0
89 2 164 5 167 6 6 823 -1 843 -7z m5 -434 c4 -4 4 -101 0 -215 l-6 -208 -61
6 c-34 3 -207 6 -386 7 -179 1 -344 4 -367 6 l-43 5 0 202 c0 114 4 206 9 212
12 11 842 -3 854 -15z"/>
<path d="M13425 15330 c-4 -6 -3 -15 1 -19 13 -11 467 -52 476 -43 20 20 -23
30 -202 46 -107 9 -211 20 -231 23 -23 3 -39 1 -44 -7z"/>
<path d="M15165 15239 c-16 -25 19 -29 211 -27 169 3 199 5 199 18 0 13 -30
15 -202 18 -139 2 -204 -1 -208 -9z"/>
<path d="M13210 15135 c0 -19 19 -21 355 -40 356 -19 355 -19 355 0 0 8 -1 15
-2 15 -65 5 -670 40 -685 40 -14 0 -23 -6 -23 -15z"/>
<path d="M15130 15071 c0 -19 6 -21 73 -22 39 0 184 -6 320 -12 137 -7 254 -9
260 -5 31 19 -26 27 -253 37 -135 6 -280 13 -322 17 -74 5 -78 4 -78 -15z"/>
<path d="M13062 14993 c3 -16 49 -22 427 -56 402 -36 465 -37 438 -11 -5 6
-780 81 -855 84 -8 0 -12 -8 -10 -17z"/>
<path d="M15140 14915 c0 -8 6 -17 13 -20 12 -4 698 -45 750 -45 17 0 27 5 27
14 0 18 -34 21 -390 41 -146 8 -295 17 -332 20 -58 5 -68 4 -68 -10z"/>
<path d="M12883 14833 c-3 -7 -4 -15 -2 -17 5 -5 899 -66 962 -66 43 0 60 11
38 24 -4 3 -210 19 -457 36 -247 16 -468 31 -492 34 -31 3 -45 0 -49 -11z"/>
<path d="M15100 14755 c0 -8 1 -15 3 -16 10 -2 784 -28 865 -29 84 0 102 3
102 15 0 9 -9 15 -22 15 -13 0 -207 7 -433 15 -524 19 -515 19 -515 0z"/>
<path d="M12720 14655 c0 -9 9 -15 23 -15 12 -1 274 -11 582 -24 323 -14 564
-20 570 -15 6 6 6 12 0 18 -9 8 -963 51 -1117 51 -45 0 -58 -3 -58 -15z"/>
<path d="M15094 14589 c-3 -6 -2 -14 4 -18 6 -3 262 -19 568 -34 531 -26 597
-26 571 0 -4 3 -251 19 -550 34 -646 33 -584 31 -593 18z"/>
<path d="M12632 14504 c3 -18 42 -21 583 -56 687 -43 655 -42 655 -24 0 20
-11 21 -595 56 -280 17 -541 33 -578 36 -63 6 -69 5 -65 -12z"/>
<path d="M15100 14416 c0 -9 20 -15 68 -19 168 -16 1213 -70 1219 -63 22 22
-55 30 -603 62 -682 39 -684 39 -684 20z"/>
<path d="M12454 14348 c-4 -5 -2 -14 2 -18 8 -8 1205 -80 1329 -80 50 0 69 10
46 24 -4 3 -293 21 -642 40 -349 20 -656 37 -682 39 -26 2 -50 0 -53 -5z"/>
<path d="M15160 14246 c0 -20 15 -21 660 -56 305 -16 585 -33 623 -36 61 -6
67 -4 67 13 0 18 -33 21 -667 56 -368 21 -671 38 -675 37 -5 0 -8 -6 -8 -14z"/>
<path d="M12235 14171 c-3 -5 -1 -12 5 -16 5 -3 317 -21 693 -40 375 -19 724
-37 775 -40 85 -6 92 -5 92 12 0 18 -41 21 -762 56 -853 42 -795 40 -803 28z"/>
<path d="M15145 14080 c-4 -6 -4 -14 0 -18 5 -6 1322 -79 1453 -81 30 -1 42 3
42 13 0 20 -17 21 -710 56 -333 16 -644 33 -691 36 -61 4 -89 2 -94 -6z"/>
<path d="M12102 13982 c-2 -7 -3 -15 -1 -17 3 -2 386 -18 853 -35 818 -31 890
-31 863 -4 -6 6 -333 20 -1361 56 -285 11 -349 11 -354 0z"/>
<path d="M15140 13895 c0 -8 1 -15 3 -16 25 -7 1675 -63 1681 -57 6 5 6 11 0
17 -7 8 -1497 71 -1651 71 -23 0 -33 -5 -33 -15z"/>
<path d="M11962 13818 c6 -17 99 -22 973 -53 396 -14 749 -26 785 -27 55 -3
65 0 68 15 3 13 -3 17 -25 17 -15 0 -388 14 -828 30 -917 34 -978 35 -973 18z"/>
<path d="M15150 13736 c0 -17 12 -18 1022 -57 445 -18 811 -29 815 -26 4 4 2
12 -4 18 -6 6 -326 23 -849 44 -968 40 -984 40 -984 21z"/>
<path d="M11810 13675 c0 -8 1 -15 3 -16 17 -7 1945 -84 1951 -78 6 6 6 12 0
18 -5 5 -234 19 -509 31 -275 11 -702 29 -950 40 -540 24 -495 23 -495 5z"/>
<path d="M15133 13583 c-3 -8 -4 -16 -2 -18 2 -2 391 -22 864 -44 473 -23 930
-45 1015 -50 148 -7 186 -3 164 18 -5 6 -441 30 -969 55 -528 25 -984 47
-1013 49 -39 3 -55 0 -59 -10z"/>
<path d="M11658 13513 c-7 -9 -6 -14 3 -18 8 -2 455 -23 994 -44 539 -22 1015
-42 1058 -45 72 -5 77 -4 77 14 0 16 -7 20 -33 20 -25 0 -1594 64 -2025 82
-42 2 -67 -1 -74 -9z"/>
<path d="M15115 13391 c-3 -5 0 -13 6 -16 9 -6 2011 -94 2147 -95 30 0 42 4
42 14 0 20 -7 20 -1140 66 -1116 45 -1047 43 -1055 31z"/>
<path d="M11563 13324 c-3 -8 -4 -16 -2 -18 2 -2 627 -25 1389 -50 762 -26
2035 -69 2830 -96 795 -26 1448 -45 1452 -42 4 4 4 12 0 18 -5 8 -879 40
-2767 102 -1518 51 -2791 94 -2828 96 -54 4 -69 2 -74 -10z"/>
<path d="M11370 13156 c0 -11 27 -15 123 -20 142 -7 5844 -186 5930 -186 42 0
57 4 57 14 0 11 -29 15 -132 20 -155 8 -5847 186 -5925 186 -39 0 -53 -4 -53
-14z"/>
<path d="M11140 13005 c0 -11 11 -15 38 -15 20 0 170 -5 332 -10 162 -6 1465
-46 2895 -90 1430 -44 2739 -85 2909 -90 300 -10 350 -7 320 18 -5 5 -486 23
-1069 41 -583 17 -1998 61 -3145 96 -1147 36 -2129 65 -2182 65 -81 0 -98 -3
-98 -15z"/>
<path d="M10985 12853 c-19 -18 -19 -47 -2 -62 14 -11 192 -16 4202 -121 1051
-27 2087 -55 2303 -61 305 -8 396 -8 408 1 22 19 18 59 -8 70 -13 5 -394 18
-848 29 -1453 37 -5780 150 -5913 154 -103 4 -131 2 -142 -10z"/>
<path d="M7600 11826 c-6 -8 -10 -25 -8 -38 3 -20 11 -24 58 -30 70 -9 11975
-192 11988 -184 19 11 21 47 4 64 -16 16 -474 24 -6012 110 -3297 51 -6000 93
-6006 93 -6 -1 -17 -8 -24 -15z"/>
<path d="M11165 11170 c-2 -3 -5 -70 -6 -150 l-4 -145 155 0 155 0 3 147 3
147 -152 3 c-83 2 -152 1 -154 -2z m275 -144 l0 -113 -46 -7 c-26 -3 -82 -6
-125 -6 l-79 0 0 120 0 120 125 0 125 0 0 -114z"/>
<path d="M11495 11170 c-2 -3 -5 -70 -6 -150 l-4 -145 155 0 155 0 3 147 3
147 -152 3 c-83 2 -152 1 -154 -2z m275 -144 l0 -113 -46 -7 c-26 -3 -82 -6
-125 -6 l-79 0 0 120 0 120 125 0 125 0 0 -114z"/>
<path d="M11827 11174 c-3 -5 -6 -74 -8 -154 l-4 -145 155 0 155 0 3 148 3
147 -119 0 c-66 0 -133 3 -150 6 -16 3 -32 2 -35 -2z m273 -148 l0 -113 -46
-7 c-26 -3 -82 -6 -125 -6 l-79 0 0 113 c0 63 3 117 7 120 3 4 60 7 125 7
l118 0 0 -114z"/>
<path d="M11157 10844 c-3 -5 -6 -74 -8 -154 l-4 -145 155 0 155 0 3 148 3
147 -119 0 c-66 0 -133 3 -150 6 -16 3 -32 2 -35 -2z m273 -148 l0 -113 -46
-7 c-26 -3 -82 -6 -125 -6 l-79 0 0 113 c0 63 3 117 7 120 3 4 60 7 125 7
l118 0 0 -114z"/>
<path d="M11487 10844 c-3 -5 -6 -74 -8 -154 l-4 -145 155 0 155 0 3 148 3
147 -119 0 c-66 0 -133 3 -150 6 -16 3 -32 2 -35 -2z m273 -148 l0 -113 -46
-7 c-26 -3 -82 -6 -125 -6 l-79 0 0 113 c0 63 3 117 7 120 3 4 60 7 125 7
l118 0 0 -114z"/>
<path d="M11827 10844 c-3 -5 -6 -74 -8 -154 l-4 -145 155 0 155 0 3 148 3
147 -119 0 c-66 0 -133 3 -150 6 -16 3 -32 2 -35 -2z m273 -148 l0 -113 -46
-7 c-26 -3 -82 -6 -125 -6 l-79 0 0 113 c0 63 3 117 7 120 3 4 60 7 125 7
l118 0 0 -114z"/>
<path d="M11172 10127 c-15 -19 -36 -1595 -21 -1613 9 -11 50 -14 188 -14 97
0 183 5 191 10 13 8 17 109 32 682 10 370 17 733 15 805 l-2 133 -196 5 c-150
4 -199 2 -207 -8z m353 -194 c-6 -141 -35 -1271 -35 -1340 l0 -33 -146 0 -146
0 6 568 c3 312 9 654 12 760 l6 192 154 0 154 0 -5 -147z"/>
<path d="M11752 10117 c-15 -19 -36 -1595 -21 -1613 9 -11 50 -14 188 -14 97
0 183 5 191 10 13 8 17 109 32 682 10 370 17 733 15 805 l-2 133 -196 5 c-150
4 -199 2 -207 -8z m353 -194 c-6 -141 -35 -1271 -35 -1340 l0 -33 -146 0 -146
0 6 568 c3 312 9 654 12 760 l6 192 154 0 154 0 -5 -147z"/>
<path d="M6695 10878 c-14 -21 -14 -24 2 -35 19 -15 83 -17 83 -4 0 5 3 16 6
24 3 10 -5 18 -27 26 -43 15 -45 14 -64 -11z"/>
</g>
</svg>
