<?xml version="1.0" standalone="no"?>
<!DOCTYPE svg PUBLIC "-//W3C//DTD SVG 20010904//EN"
 "http://www.w3.org/TR/2001/REC-SVG-20010904/DTD/svg10.dtd">
<svg version="1.0" xmlns="http://www.w3.org/2000/svg"
 width="2750.000000pt" height="467.000000pt" viewBox="0 0 2750.000000 467.000000"
 preserveAspectRatio="xMidYMid meet">

<g transform="translate(0.000000,467.000000) scale(0.100000,-0.100000)"
fill="#ffffff" stroke="none">
<path d="M15565 4654 c-318 -33 -553 -98 -800 -219 -364 -179 -694 -474 -925
-825 -80 -122 -209 -385 -254 -520 -87 -260 -120 -467 -120 -760 0 -247 17
-397 69 -605 184 -729 779 -1369 1496 -1608 229 -77 458 -111 749 -110 424 0
760 84 1088 273 441 253 793 682 961 1172 85 249 118 468 128 845 l6 253
-1096 0 -1097 0 0 -32 c1 -65 30 -175 69 -253 68 -137 169 -238 306 -306 132
-65 165 -69 638 -69 l417 0 -6 -28 c-17 -68 -88 -261 -121 -326 -170 -338
-460 -592 -816 -712 -188 -63 -392 -88 -604 -73 -338 23 -611 131 -860 340
-266 223 -446 529 -525 889 -20 93 -22 132 -22 350 0 270 11 353 75 545 127
381 411 710 764 888 401 201 919 207 1322 16 184 -87 405 -271 518 -428 l50
-70 428 0 c235 -1 427 2 427 7 0 23 -132 264 -204 372 -355 532 -888 878
-1501 975 -96 16 -472 28 -560 19z"/>
<path d="M20465 4654 c-468 -49 -816 -182 -1167 -446 -379 -286 -681 -700
-822 -1128 -194 -589 -141 -1296 136 -1820 110 -208 230 -371 408 -554 213
-219 397 -355 645 -476 222 -109 422 -170 680 -206 146 -21 484 -24 627 -5
517 66 961 284 1333 656 351 352 562 750 647 1221 20 115 23 160 23 414 0 312
-8 392 -67 625 -139 552 -537 1084 -1049 1402 -238 148 -520 250 -824 299 -96
15 -481 27 -570 18z m530 -754 c296 -63 522 -187 740 -405 311 -312 474 -707
475 -1152 1 -462 -157 -857 -465 -1168 -233 -236 -471 -361 -800 -422 -123
-23 -416 -23 -540 0 -310 56 -553 179 -772 390 -300 290 -460 633 -493 1058
-38 510 134 970 491 1314 240 231 506 359 839 405 113 15 412 4 525 -20z"/>
<path d="M0 2330 l0 -2281 1178 4 c1048 3 1188 5 1281 20 541 88 949 300 1327
688 343 353 535 754 606 1264 16 118 16 484 -1 605 -36 265 -96 471 -202 689
-140 289 -335 540 -586 751 -323 273 -654 428 -1093 512 -114 21 -128 22
-1312 25 l-1198 4 0 -2281z m2446 1527 c158 -35 274 -76 405 -144 259 -134
501 -380 636 -647 120 -237 182 -599 154 -891 -40 -402 -190 -719 -465 -983
-206 -197 -447 -319 -753 -384 -106 -22 -122 -23 -875 -26 l-768 -3 0 1556 0
1556 773 -4 772 -3 121 -27z"/>
<path d="M4456 4553 c10 -97 32 -174 76 -263 56 -115 177 -238 294 -298 159
-82 71 -76 1254 -82 l1055 -5 96 -32 c317 -108 519 -398 519 -748 0 -237 -75
-413 -247 -575 -69 -65 -104 -90 -186 -129 -190 -91 -110 -86 -1289 -86
l-1038 0 0 -1137 0 -1138 390 0 390 0 0 800 0 800 488 0 487 -1 488 -799 489
-800 414 0 c228 0 414 3 414 6 0 3 -230 381 -511 839 -281 459 -512 837 -513
840 0 4 33 19 74 35 443 162 780 564 877 1047 24 123 24 430 0 563 -55 295
-201 566 -427 790 -168 166 -346 276 -565 349 -242 80 -144 75 -1673 79
l-1362 3 6 -58z"/>
<path d="M11140 4604 c-14 -2 -52 -9 -85 -15 -243 -43 -495 -243 -602 -475
-13 -29 -345 -952 -738 -2051 l-713 -1998 401 -3 c270 -1 403 1 407 8 4 6 325
926 715 2045 389 1120 711 2033 714 2029 3 -3 319 -922 702 -2042 l696 -2037
402 -3 c220 -1 401 -1 401 1 0 12 -1396 4003 -1414 4043 -106 230 -322 410
-571 474 -77 20 -260 34 -315 24z"/>
<path d="M24245 4601 c-293 -47 -532 -249 -631 -533 l-29 -83 -3 -1962 -2
-1963 375 0 375 0 0 2007 c0 1104 4 2003 8 1997 5 -5 384 -814 842 -1799 458
-984 852 -1820 876 -1856 104 -163 283 -288 476 -334 94 -22 277 -20 374 5
236 60 413 208 518 431 77 163 71 -35 74 2147 l2 1952 -380 0 -380 0 -2 -1964
-3 -1964 -809 1732 c-445 952 -826 1761 -848 1799 -106 184 -279 317 -483 371
-69 19 -277 29 -350 17z"/>
</g>
</svg>
